<?xml version="1.0" encoding="utf-8"?>
<!-- Generator: Adobe Illustrator 21.0.0, SVG Export Plug-In . SVG Version: 6.00 Build 0)  -->
<svg version="1.1" id="Слой_1" xmlns="http://www.w3.org/2000/svg" xmlns:xlink="http://www.w3.org/1999/xlink" x="0px" y="0px"
	 viewBox="0 0 856.9 971.9" style="enable-background:new 0 0 856.9 971.9;" xml:space="preserve">
<style type="text/css">
	.st0{fill:none;stroke:#54E298;stroke-width:6.9129;stroke-miterlimit:10;}
</style>
<rect x="477.2" y="211.7" transform="matrix(0.7071 -0.7071 0.7071 0.7071 -25.4807 437.0161)" class="st0" width="75.2" height="75.2"/>
<g>
	<line class="st0" x1="248.3" y1="640.9" x2="248.3" y2="533.4"/>
	<line class="st0" x1="141.8" y1="640" x2="354.9" y2="640"/>
	<line class="st0" x1="171.7" y1="563.3" x2="325" y2="716.6"/>
	<line class="st0" x1="248.3" y1="747.4" x2="248.3" y2="640"/>
	<line class="st0" x1="173" y1="715.3" x2="323.7" y2="564.6"/>
</g>
<path class="st0" d="M675,737.2c8.6-12.7,25.5-20.1,40-15c12,4.2,20,15.4,26.3,26.5s12,23,22.1,30.7s26.4,9.2,34.5-0.5"/>
<path class="st0" d="M580.6,817.8c11.1-0.7,22.3-0.3,33.4,1.2"/>
<path class="st0" d="M736.5,608.8c1.5,6.3,2.3,12.7,2.5,19.2"/>
<line class="st0" x1="2281.1" y1="249" x2="2519.7" y2="249"/>
<rect x="2084.6" y="485.9" class="st0" width="136.3" height="56.9"/>
<rect x="2025.4" y="542.9" class="st0" width="136.3" height="56.9"/>
<rect x="2025.4" y="429" class="st0" width="136.3" height="56.9"/>
</svg>
