<?xml version="1.0" encoding="utf-8"?>
<!-- Generator: Adobe Illustrator 21.0.0, SVG Export Plug-In . SVG Version: 6.00 Build 0)  -->
<svg version="1.1" id="Слой_1" xmlns="http://www.w3.org/2000/svg" xmlns:xlink="http://www.w3.org/1999/xlink" x="0px" y="0px"
	 viewBox="0 0 170.2 311.2" style="enable-background:new 0 0 170.2 311.2;" xml:space="preserve">
<style type="text/css">
	.st0{fill:url(#SVGID_1_);}
	.st1{fill:#7AFFBC;}
	.st2{fill:url(#SVGID_2_);}
	.st3{fill:url(#SVGID_3_);}
	.st4{fill:url(#SVGID_4_);}
	.st5{fill:#FFFFFF;}
</style>
<g>
	<g>
		
			<linearGradient id="SVGID_1_" gradientUnits="userSpaceOnUse" x1="1772.3672" y1="4907.7813" x2="1831.0302" y2="4907.7813" gradientTransform="matrix(0 1 -1 0 5005.4243 -1519.8218)">
			<stop  offset="0" style="stop-color:#0068FF"/>
			<stop  offset="1" style="stop-color:#7AFFBC"/>
		</linearGradient>
		<line class="st0" x1="97.6" y1="252.5" x2="97.6" y2="311.2"/>
		<path class="st1" d="M95.6,311.2v-58.7c0-1.1,0.9-2,2-2s2,0.9,2,2v58.7H95.6z"/>
	</g>
	<path class="st1" d="M97.6,283.1c-17.1,0-31-13.9-31-31s13.9-31,31-31c17.1,0,31,13.9,31,31S114.7,283.1,97.6,283.1z M97.6,225.2
		c-14.9,0-27,12.1-27,27c0,14.9,12.1,27,27,27s27-12.1,27-27C124.6,237.3,112.5,225.2,97.6,225.2z"/>
	
		<linearGradient id="SVGID_2_" gradientUnits="userSpaceOnUse" x1="1691.0424" y1="4907.7813" x2="1806.8717" y2="4907.7813" gradientTransform="matrix(0 1 -1 0 5005.4243 -1519.8218)">
		<stop  offset="0" style="stop-color:#0068FF"/>
		<stop  offset="0.5495" style="stop-color:#7AFFBC"/>
	</linearGradient>
	<circle class="st2" cx="97.6" cy="194.6" r="57.9"/>
	
		<linearGradient id="SVGID_3_" gradientUnits="userSpaceOnUse" x1="1647.6559" y1="4907.7813" x2="1763.4854" y2="4907.7813" gradientTransform="matrix(0 1 -1 0 5005.4243 -1519.8218)">
		<stop  offset="0" style="stop-color:#0068FF"/>
		<stop  offset="0.6832" style="stop-color:#7AFFBC"/>
	</linearGradient>
	<circle class="st3" cx="97.6" cy="151.2" r="57.9"/>
	<path class="st1" d="M97.6,138.6c-17.1,0-31-13.9-31-31s13.9-31,31-31c17.1,0,31,13.9,31,31S114.7,138.6,97.6,138.6z M97.6,80.7
		c-14.9,0-27,12.1-27,27s12.1,27,27,27s27-12.1,27-27S112.5,80.7,97.6,80.7z"/>
	<g>
		
			<linearGradient id="SVGID_4_" gradientUnits="userSpaceOnUse" x1="1569.5668" y1="4907.7813" x2="1627.4814" y2="4907.7813" gradientTransform="matrix(0 1 -1 0 5005.4243 -1519.8218)">
			<stop  offset="0" style="stop-color:#0068FF"/>
			<stop  offset="1" style="stop-color:#7AFFBC"/>
		</linearGradient>
		<line class="st4" x1="97.6" y1="107.7" x2="97.6" y2="49.7"/>
		<path class="st1" d="M97.6,109.7c-1.1,0-2-0.9-2-2V49.7c0-1.1,0.9-2,2-2s2,0.9,2,2v57.9C99.6,108.8,98.7,109.7,97.6,109.7z"/>
	</g>
</g>
<path class="st5" d="M19.3,33.4c4.3,2.4,8.6,4.7,13,7.1c2.8,1.5,5.4-2.8,2.5-4.3c-4.3-2.4-8.6-4.7-13-7.1
	C19,27.5,16.5,31.9,19.3,33.4L19.3,33.4z"/>
<path class="st5" d="M104.8,29.6C116.4,24.6,125,15,129,3.1c1-3.1-3.8-4.4-4.8-1.3c-3.6,10.8-11.5,19.1-21.9,23.6
	C99.3,26.6,101.9,30.9,104.8,29.6L104.8,29.6z"/>
<path class="st5" d="M138.2,66.7c9.4-4,19.5-5.3,29.6-4.2c3.2,0.3,3.2-4.7,0-5c-11.1-1.2-21.9,0.6-32.2,4.9
	C132.7,63.6,135.3,67.9,138.2,66.7L138.2,66.7z"/>
<path class="st5" d="M2.7,58.3L2.7,58.3c-1.5,0-2.7-1.2-2.7-2.7v0C0,54.2,1.2,53,2.7,53h0c1.5,0,2.7,1.2,2.7,2.7v0
	C5.3,57.1,4.1,58.3,2.7,58.3z"/>
<path class="st5" d="M160.8,32.5L160.8,32.5c-1.5,0-2.7-1.2-2.7-2.7v0c0-1.5,1.2-2.7,2.7-2.7h0c1.5,0,2.7,1.2,2.7,2.7v0
	C163.5,31.3,162.3,32.5,160.8,32.5z"/>
</svg>
