<?xml version="1.0" encoding="utf-8"?>
<!-- Generator: Adobe Illustrator 21.0.0, SVG Export Plug-In . SVG Version: 6.00 Build 0)  -->
<svg version="1.1" id="Слой_1" xmlns="http://www.w3.org/2000/svg" xmlns:xlink="http://www.w3.org/1999/xlink" x="0px" y="0px"
	 viewBox="0 0 295.5 144.6" style="enable-background:new 0 0 295.5 144.6;" xml:space="preserve">
<style type="text/css">
	.st0{fill:url(#SVGID_1_);}
	.st1{fill:#7AFFBC;}
	.st2{fill:url(#SVGID_2_);}
	.st3{fill:url(#SVGID_3_);}
	.st4{fill:url(#SVGID_4_);}
	.st5{fill:url(#SVGID_5_);}
</style>
<g>
	<g>
		<linearGradient id="SVGID_1_" gradientUnits="userSpaceOnUse" x1="228.7534" y1="71.3515" x2="291.4455" y2="71.3515">
			<stop  offset="0" style="stop-color:#0068FF"/>
			<stop  offset="1" style="stop-color:#7AFFBC"/>
		</linearGradient>
		<line class="st0" x1="228.8" y1="71.4" x2="291.4" y2="71.4"/>
		<path class="st1" d="M291.4,73.4h-62.7c-1.1,0-2-0.9-2-2s0.9-2,2-2h62.7c1.1,0,2,0.9,2,2S292.5,73.4,291.4,73.4z"/>
	</g>
	<path class="st1" d="M228.3,105.4c-18.8,0-34-15.3-34-34c0-18.8,15.3-34,34-34c18.8,0,34,15.3,34,34
		C262.3,90.1,247.1,105.4,228.3,105.4z M228.3,41.3c-16.6,0-30,13.5-30,30s13.5,30,30,30s30-13.5,30-30S244.9,41.3,228.3,41.3z"/>
	<linearGradient id="SVGID_2_" gradientUnits="userSpaceOnUse" x1="138.7753" y1="71.3515" x2="266.9294" y2="71.3515">
		<stop  offset="0" style="stop-color:#0068FF"/>
		<stop  offset="0.5495" style="stop-color:#7AFFBC"/>
	</linearGradient>
	<circle class="st2" cx="164.7" cy="71.4" r="64.1"/>
	<linearGradient id="SVGID_3_" gradientUnits="userSpaceOnUse" x1="90.7724" y1="71.3515" x2="218.9264" y2="71.3515">
		<stop  offset="0" style="stop-color:#0068FF"/>
		<stop  offset="0.6832" style="stop-color:#7AFFBC"/>
	</linearGradient>
	<circle class="st3" cx="116.7" cy="71.4" r="64.1"/>
	<linearGradient id="SVGID_4_" gradientUnits="userSpaceOnUse" x1="4.3742" y1="71.3515" x2="132.5282" y2="71.3515">
		<stop  offset="0" style="stop-color:#0068FF"/>
		<stop  offset="0.8812" style="stop-color:#7AFFBC"/>
	</linearGradient>
	<circle class="st4" cx="68.5" cy="71.4" r="64.1"/>
	<path class="st1" d="M68.5,105.4c-18.8,0-34-15.3-34-34c0-18.8,15.3-34,34-34c18.8,0,34,15.3,34,34
		C102.5,90.1,87.2,105.4,68.5,105.4z M68.5,41.3c-16.6,0-30,13.5-30,30s13.5,30,30,30c16.6,0,30-13.5,30-30S85,41.3,68.5,41.3z"/>
	<g>
		<linearGradient id="SVGID_5_" gradientUnits="userSpaceOnUse" x1="4.3742" y1="71.3515" x2="68.4512" y2="71.3515">
			<stop  offset="0" style="stop-color:#0068FF"/>
			<stop  offset="1" style="stop-color:#7AFFBC"/>
		</linearGradient>
		<line class="st5" x1="68.5" y1="71.4" x2="4.4" y2="71.4"/>
		<path class="st1" d="M68.5,73.4H4.4c-1.1,0-2-0.9-2-2s0.9-2,2-2h64.1c1.1,0,2,0.9,2,2S69.6,73.4,68.5,73.4z"/>
	</g>
</g>
</svg>
