<?xml version="1.0" encoding="utf-8"?>
<!-- Generator: Adobe Illustrator 21.0.0, SVG Export Plug-In . SVG Version: 6.00 Build 0)  -->
<svg version="1.1" id="Слой_1" xmlns="http://www.w3.org/2000/svg" xmlns:xlink="http://www.w3.org/1999/xlink" x="0px" y="0px"
	 viewBox="0 0 416.3 236.5" style="enable-background:new 0 0 416.3 236.5;" xml:space="preserve">
<style type="text/css">
	.st0{fill:url(#SVGID_1_);}
	.st1{fill:url(#SVGID_2_);}
	.st2{fill:url(#SVGID_3_);}
	.st3{fill:#FFFFFF;}
</style>
<g>
	<linearGradient id="SVGID_1_" gradientUnits="userSpaceOnUse" x1="112.2096" y1="45.4472" x2="438.0233" y2="230.3745">
		<stop  offset="0" style="stop-color:#0068FF"/>
		<stop  offset="0.5842" style="stop-color:#7AFFBC"/>
	</linearGradient>
	<polygon class="st0" points="311.4,223.5 41.7,78.9 146.6,0 416.3,144.6 	"/>
	<linearGradient id="SVGID_2_" gradientUnits="userSpaceOnUse" x1="124.8732" y1="128.3747" x2="408.9487" y2="289.612">
		<stop  offset="0" style="stop-color:#0068FF"/>
		<stop  offset="1" style="stop-color:#7AFFBC"/>
	</linearGradient>
	<polygon class="st1" points="41.7,91.9 311.4,236.5 311.4,223.5 41.7,78.9 	"/>
	
		<linearGradient id="SVGID_3_" gradientUnits="userSpaceOnUse" x1="195.7643" y1="178.628" x2="308.8215" y2="266.0115" gradientTransform="matrix(-1 0 0 1 574.9989 0)">
		<stop  offset="0" style="stop-color:#0068FF"/>
		<stop  offset="1" style="stop-color:#7AFFBC"/>
	</linearGradient>
	<polygon class="st2" points="416.3,157.6 311.4,236.5 311.4,223.5 416.3,144.6 	"/>
</g>
<g>
	<path class="st3" d="M40.7,92.9c-0.5,8.2,3,10.3,5.4,10.3c1.4,0,2.6-0.4,4.6-1.4c1.1,0.2,1.8,1.7,1.4,2.8
		c-1.4,1.9-7.1,6.5-13.9,6.5c-4.2,0-6.8-1.4-10.1-4.2c-0.8-0.7-1.3-1-1.9-1c-0.6,0-1.3,0.5-2.5,1.3c-2.2,1.6-5.8,3.8-10.2,3.8
		c-7,0-13.4-4.2-13.4-12.6c0-6.1,3.7-9.8,12.5-12.5c4.6-1.4,7.9-2.4,11.3-3.4c2.2-0.6,2.8-1.4,2.9-2.4c0.1-1.3,0.2-2.6,0.2-4.1
		c0-4.6-1.8-10.3-7-10.3c-2.9,0-5.4,1.7-6.2,6.8c-0.2,1.9-1,3-2,3.8c-1.8,1.3-6.5,2.8-8.6,2.8c-2,0-2.8-1.3-2.8-3
		c0-3.1,2.9-7,5.8-9.2c4.1-3.2,11.6-7.3,20.2-7.3c10.1,0,16,5,15.4,17.4L40.7,92.9z M26.3,89.8c0.1-1.9,0-2.3-0.8-2.2
		c-5.4,0.7-10.1,2.8-10.1,8.4c0,3.8,2.8,7.2,6.1,7.2c3.7,0,4.4-2.2,4.6-5.9L26.3,89.8z"/>
	<path class="st3" d="M66.6,77.3c0-4.8,0-6.2-2.3-7.7l-1.7-1.1c-0.8-0.7-0.8-2.9,0-3.6c5.5-1.6,14-4.8,17.8-7c1,0,1.7,0.4,2.2,1.1
		c0,1.7-0.4,4.6-0.4,5.4c0,0.7,0.2,1,0.6,1c0.4,0,1.6-0.6,2.3-1c2.6-1.6,8-4.8,13.8-4.8c4.3,0,8,1.4,10.8,4.6
		c1.4,1.7,2.2,2.2,2.9,2.2c0.5,0,1.6-0.8,3.8-2c2.6-1.4,7.2-4.7,13.7-4.7c9.5,0,14.5,6.8,14.5,15.1v20.6c0,8.4,0.5,9.4,4.4,9.8
		l1.9,0.2c1,0.7,1,3.5-0.1,4.2c-3.7-0.2-8.3-0.4-14-0.4c-4.8,0-9.8,0.1-13.1,0.4c-1.1-0.7-1.1-3.5-0.1-4.2l1.9-0.2
		c3-0.4,3.5-1.4,3.5-8V76.9c0-4.6-2.5-8.4-8-8.4c-3.4,0-5.9,1.6-6.7,3c-0.5,0.7-0.8,1.9-0.8,3.6v22.2c0,6.6,0.5,7.7,3.2,8l1.9,0.2
		c1,0.7,1,3.5-0.1,4.2c-3.7-0.2-7.6-0.4-13-0.4c-4.8,0-9.6,0.1-12.7,0.4c-1.1-0.7-1.1-3.5-0.1-4.2l1.9-0.2c2.8-0.4,3.2-1.4,3.2-8
		V76.9c0-4.6-2.4-8.4-8.2-8.4c-3.1,0-5.5,1.6-6.5,2.9c-0.7,0.8-1,2.3-1,4.4v21.5c0,6.6,0.5,7.7,3.5,8l1.9,0.2c1,0.7,1,3.5-0.1,4.2
		c-3.7-0.2-7.6-0.4-13.3-0.4c-5.4,0-10.1,0.1-13.7,0.4c-1.2-0.7-1.2-3.5-0.2-4.2l1.9-0.2c4-0.5,4.4-1.4,4.4-9.8V77.3z"/>
	<path class="st3" d="M162.5,77.3c0-4.8,0-6.2-2.3-7.7l-1.7-1.1c-0.8-0.7-0.8-2.9,0-3.6c4.9-1.4,13.9-5.3,17.3-7.6
		c0.8-0.1,2,0.4,2.5,1.4c-0.2,1.4-0.2,2.8-0.2,4c0,0.8,0.5,1.6,1,1.7c3.6-1.8,8.9-4.8,15.2-4.8c12.7,0,20.4,10,20.4,22.9
		c0,16.8-11.9,28.4-29.4,28.4c-1.7,0-4.3-0.1-5.4-0.4c-1.1,0.2-1.8,1-1.8,3.5v11.9c0,8.4,0.5,9.4,4.4,9.7l4.1,0.4
		c1,0.7,1,3.5-0.1,4.2c-6-0.2-10.8-0.4-16.4-0.4c-5.3,0-10,0.1-14.3,0.4c-1.1-0.7-1.1-3.5-0.1-4.2l2.4-0.2c4-0.4,4.4-1.4,4.4-9.8
		V77.3z M178.1,95.8c0,2.6,1,5.2,2.8,7c1.6,1.7,3.8,2.8,5.8,2.8c7.4,0,11.5-7.9,11.5-19.1c0-11.8-5.8-18.5-13.7-18.5
		c-2,0-4.1,0.5-5,1.7c-0.6,0.7-1.3,2.3-1.3,7V95.8z"/>
	<path class="st3" d="M240,80.9c-2.8,0-3,0.2-3,2.2c0,9,5.8,17.8,16.9,17.8c3.4,0,7.9-0.7,11.2-6.2c1.3-0.2,3.1,0.7,3.1,2.8
		c-4.9,10.2-13.8,13.7-21,13.7c-16.2,0-25-11.4-25-24.5c0-15.1,10.9-26.9,25.9-26.9c12.5,0,19.2,8,19.2,17.3c0,2.3-0.6,4-4.3,4H240z
		 M247.9,75.7c1.7,0,3.6-0.2,4.9-1.1c0.6-0.4,0.8-1.6,0.8-2.8c0-4-2.3-6.6-6.4-6.6c-5,0-9.4,4.8-9.4,8.6c0,1.7,1.7,1.8,5.5,1.8
		H247.9z"/>
	<path class="st3" d="M278.9,77.6c0-4.8,0-6.2-2.3-7.7l-1.7-1.1c-0.8-0.7-0.8-2.9,0-3.6c5.5-1.6,13.8-4.8,17.5-7.2
		c1,0,1.7,0.4,2.2,1.1c-0.2,2.4-0.5,4.1-0.5,5.2c0,0.8,0.2,1.2,1.2,1.4c3.2-2,6.7-6,11.8-6c3.2,0,6.6,2.5,6.6,7.1
		c0,5.5-3.8,7.8-7.7,7.8c-1.7,0-3.1-0.7-4.7-2.2c-2.8-2.3-3.8-2.4-4.6-2.4c-1.7,0-2.3,2.6-2.3,7.2v18.2c0,8.4,0.5,9.4,4.4,9.7
		l3.8,0.4c1,0.7,1,3.5-0.1,4.2c-5.8-0.2-10.6-0.4-16.2-0.4c-4.9,0-10.2,0.1-14.2,0.4c-1.1-0.7-1.1-3.5-0.1-4.2l2.3-0.2
		c4-0.4,4.4-1.4,4.4-9.8V77.6z"/>
</g>
</svg>
