<?xml version="1.0" encoding="utf-8"?>
<!-- Generator: Adobe Illustrator 21.0.0, SVG Export Plug-In . SVG Version: 6.00 Build 0)  -->
<svg version="1.1" id="Слой_1" xmlns="http://www.w3.org/2000/svg" xmlns:xlink="http://www.w3.org/1999/xlink" x="0px" y="0px"
	 viewBox="0 0 226.6 137.1" enable-background="new 0 0 226.6 137.1" xml:space="preserve">
<g>
	<linearGradient id="SVGID_1_" gradientUnits="userSpaceOnUse" x1="138.5014" y1="38.4096" x2="188.6307" y2="38.4096">
		<stop  offset="0" style="stop-color:#0068FF"/>
		<stop  offset="1" style="stop-color:#7AFFBC"/>
	</linearGradient>
	<polygon fill="url(#SVGID_1_)" points="151.8,0 107.5,76.8 196.2,76.8 	"/>
	<linearGradient id="SVGID_2_" gradientUnits="userSpaceOnUse" x1="93.2609" y1="38.4096" x2="143.3902" y2="38.4096">
		<stop  offset="0" style="stop-color:#0068FF"/>
		<stop  offset="1" style="stop-color:#7AFFBC"/>
	</linearGradient>
	<polygon fill="url(#SVGID_2_)" points="106.6,0 62.3,76.8 151,76.8 	"/>
	<g>
		<path fill="#7AFFBC" d="M63.9,8l37.4,64.8H26.5L63.9,8 M63.9,0L19.5,76.8h88.7L63.9,0L63.9,0z"/>
	</g>
	<path fill="#7AFFBC" d="M63.9,7.6L101.7,73H26.1L63.9,7.6 M63.9,0L19.5,76.8h88.7L63.9,0L63.9,0z"/>
	<path fill="#FFFFFF" d="M222.1,135.6c-3.2-9.8-11.6-17.5-21.8-19.4c-11.6-2.1-22.7,3.9-32.6,8.9c-15.2,7.6-30.2,12-47.2,8.9
		c-15.6-2.8-30.3-11.3-40-23.9C68.7,94.9,65.1,75.4,54.6,59.6C42.8,41.9,20.6,30.9,0,40.1V35c20.5-7.7,42.4,1.1,55.6,18
		c12.5,15.9,15.8,36.8,27.6,53.1c11.2,15.3,30.2,24.2,49.1,24.2c9.9,0,19-2.7,27.9-6.9c8.7-4.2,17.3-9.3,26.9-11.4
		c17.1-3.7,34.1,5.4,39.5,22.3C227.6,137.2,223,138.5,222.1,135.6z"/>
	<g>
		<polygon fill="#7AFFBC" points="74.6,73.1 57.2,73.1 57.2,76.8 74.6,76.8 74.6,73.1 		"/>
	</g>
</g>
</svg>
