<?xml version="1.0" encoding="utf-8"?>
<!-- Generator: Adobe Illustrator 21.0.0, SVG Export Plug-In . SVG Version: 6.00 Build 0)  -->
<svg version="1.1" id="Слой_1" xmlns="http://www.w3.org/2000/svg" xmlns:xlink="http://www.w3.org/1999/xlink" x="0px" y="0px"
	 viewBox="0 0 265 147.7" style="enable-background:new 0 0 265 147.7;" xml:space="preserve">
<style type="text/css">
	.st0{fill:url(#SVGID_1_);}
	.st1{fill:url(#SVGID_2_);}
	.st2{fill:#7AFFBC;}
	.st3{fill:#FFFFFF;}
</style>
<g>
	<linearGradient id="SVGID_1_" gradientUnits="userSpaceOnUse" x1="178.9467" y1="40.4695" x2="231.7643" y2="40.4695">
		<stop  offset="0" style="stop-color:#0068FF"/>
		<stop  offset="1" style="stop-color:#7AFFBC"/>
	</linearGradient>
	<polygon class="st0" points="193,0 146.3,80.9 239.7,80.9 	"/>
	<linearGradient id="SVGID_2_" gradientUnits="userSpaceOnUse" x1="131.28" y1="40.4695" x2="184.0976" y2="40.4695">
		<stop  offset="0" style="stop-color:#0068FF"/>
		<stop  offset="1" style="stop-color:#7AFFBC"/>
	</linearGradient>
	<polygon class="st1" points="145.3,0 98.6,80.9 192.1,80.9 	"/>
	<path class="st2" d="M100.3,8l39.8,68.9H60.5L100.3,8 M100.3,0L53.6,80.9h93.5L100.3,0L100.3,0z"/>
	<path class="st2" d="M100.3,8l39.8,68.9H60.5L100.3,8 M100.3,0L53.6,80.9h93.5L100.3,0L100.3,0z"/>
	<path class="st3" d="M14.7,76.4c-2.2-11.2,2.6-23,11.5-30.1c9.7-7.7,23.3-9.4,35-6c24.8,7.1,34.5,30.7,43.7,52.2
		c8.4,19.6,20,35.7,40.1,44.2c18.4,7.8,38.4,7.2,56.5-0.9c11.9-5.4,23.8-13.6,37.3-13.7c12.9-0.1,24.4,8.6,28.3,20.8
		c1,3.1,5.8,1.7,4.8-1.3c-3.1-9.8-10.3-17.8-19.9-21.8c-10.7-4.5-22-2.4-32.4,1.9c-11.5,4.8-22.1,11.9-34.4,14.5
		c-11.4,2.4-23.3,1.4-34.3-2.4c-10.7-3.7-20.6-10.2-27.9-19c-8.4-10.1-12.9-22.7-18-34.6c-9.2-21.7-24.2-42.7-49.4-46
		c-25.4-3.3-51,16.6-45.8,43.6C10.5,80.9,15.3,79.6,14.7,76.4L14.7,76.4z"/>
	<polygon class="st2" points="111.6,77 93.2,77 93.2,80.9 111.6,80.9 111.6,77 	"/>
</g>
</svg>
