<?xml version="1.0" encoding="utf-8"?>
<!-- Generator: Adobe Illustrator 21.0.0, SVG Export Plug-In . SVG Version: 6.00 Build 0)  -->
<svg version="1.1" id="Слой_1" xmlns="http://www.w3.org/2000/svg" xmlns:xlink="http://www.w3.org/1999/xlink" x="0px" y="0px"
	 viewBox="0 0 177 96.4" style="enable-background:new 0 0 177 96.4;" xml:space="preserve">
<style type="text/css">
	.st0{fill:#FFFFFF;}
</style>
<polygon class="st0" points="177,94.9 156.1,74 177,53.1 "/>
<rect x="120.9" y="59.3" transform="matrix(0.7071 0.7071 -0.7071 0.7071 92.0701 -74.2499)" class="st0" width="29.5" height="29.5"/>
<path class="st0" d="M1.6,33.3c4.3,2.4,8.6,4.7,13,7.1c2.8,1.5,5.4-2.8,2.5-4.3c-4.3-2.4-8.6-4.7-13-7.1C1.3,27.4-1.2,31.8,1.6,33.3
	L1.6,33.3z"/>
<path class="st0" d="M86.7,29.9c11.6-5,20.2-14.7,24.2-26.6c1-3.1-3.8-4.4-4.8-1.3C102.4,12.7,94.5,21,84.2,25.5
	C81.2,26.8,83.8,31.1,86.7,29.9L86.7,29.9z"/>
</svg>
