<?xml version="1.0" encoding="utf-8"?>
<!-- Generator: Adobe Illustrator 21.0.0, SVG Export Plug-In . SVG Version: 6.00 Build 0)  -->
<svg version="1.1" id="Слой_1" xmlns="http://www.w3.org/2000/svg" xmlns:xlink="http://www.w3.org/1999/xlink" x="0px" y="0px"
	 viewBox="0 0 36.6 110.9" style="enable-background:new 0 0 36.6 110.9;" xml:space="preserve">
<style type="text/css">
	.st0{fill:#FFFFFF;}
</style>
<rect x="7.8" y="64.9" transform="matrix(0.7071 0.7071 -0.7071 0.7071 60.0738 8.5529)" class="st0" width="23.9" height="23.9"/>
<rect x="7.8" y="31" transform="matrix(0.7071 0.7071 -0.7071 0.7071 36.1669 -1.3497)" class="st0" width="23.9" height="23.9"/>
<polyline class="st0" points="19.7,127.8 2.8,110.9 19.7,94 36.6,110.9 19.7,127.8 "/>
<path class="st0" d="M19.7,32.5c-1.1,0-2-0.9-2-2V11.9c0-5.4-3.6-7.9-6.9-7.9C7.4,4,4,6.4,4,11.9c0,1.1-0.9,2-2,2s-2-0.9-2-2
	C0,4.1,5.4,0,10.8,0c5.4,0,10.9,4.1,10.9,11.9v18.7C21.7,31.7,20.8,32.5,19.7,32.5z"/>
</svg>
