<?xml version="1.0" encoding="utf-8"?>
<!-- Generator: Adobe Illustrator 21.0.0, SVG Export Plug-In . SVG Version: 6.00 Build 0)  -->
<svg version="1.1" id="Слой_1" xmlns="http://www.w3.org/2000/svg" xmlns:xlink="http://www.w3.org/1999/xlink" x="0px" y="0px"
	 viewBox="0 0 216.2 598.8" style="enable-background:new 0 0 216.2 598.8;" xml:space="preserve">
<style type="text/css">
	.st0{fill:#7AFFBC;}
	.st1{fill:#FFFFFF;}
</style>
<path class="st0" d="M201.2,74.4c-0.6,0-1.2-0.4-1.4-1c-2.1-5.5-6.9-9.8-12.6-11.2c-0.8-0.2-1.3-1-1.1-1.8c0.2-0.8,1-1.3,1.8-1.1
	c6.6,1.7,12.2,6.7,14.7,13.1c0.3,0.8-0.1,1.6-0.9,1.9C201.5,74.4,201.4,74.4,201.2,74.4z"/>
<path class="st0" d="M201.3,152.3c-0.2,0-0.4,0-0.6-0.1c-0.8-0.3-1.1-1.2-0.8-1.9c2.4-6,8.2-10.4,14.6-11.1c0.8-0.1,1.6,0.5,1.6,1.3
	c0.1,0.8-0.5,1.6-1.3,1.6c-5.3,0.5-10.2,4.2-12.1,9.2C202.5,151.9,201.9,152.3,201.3,152.3z"/>
<g>
	<g>
		<path class="st1" d="M86.3,547.8c0.5,4,1,7.9,1.5,11.9c0.2,1.6,2.7,1.6,2.5,0c-0.5-4-1-7.9-1.5-11.9
			C88.6,546.3,86.1,546.2,86.3,547.8L86.3,547.8z"/>
	</g>
</g>
<g>
	<g>
		<path class="st1" d="M104.1,543.6c2.4,1.6,4.2,3.7,5.4,6.3c0.7,1.5,2.8,0.2,2.2-1.3c-1.4-3-3.5-5.4-6.3-7.2
			C104,540.6,102.7,542.8,104.1,543.6L104.1,543.6z"/>
	</g>
</g>
<g>
	<g>
		<path class="st1" d="M137.1,546.6c-1.3,2.2-2.6,4.4-3.9,6.6c-0.8,1.4,1.3,2.7,2.2,1.3c1.3-2.2,2.6-4.4,3.9-6.6
			C140.1,546.4,137.9,545.2,137.1,546.6L137.1,546.6z"/>
	</g>
</g>
<g>
	<g>
		<path class="st1" d="M107,576.3c2.5,1.5,4.9,3,7.4,4.5c1.4,0.8,2.6-1.3,1.3-2.2c-2.5-1.5-4.9-3-7.4-4.5
			C106.9,573.3,105.6,575.5,107,576.3L107,576.3z"/>
	</g>
</g>
<g>
	<g>
		<path class="st1" d="M172.7,554.7c-2,3.2-4,6.4-6.1,9.6c-0.9,1.4,1.3,2.6,2.2,1.3c2-3.2,4-6.4,6.1-9.6
			C175.7,554.6,173.6,553.4,172.7,554.7L172.7,554.7z"/>
	</g>
</g>
<g>
	<g>
		<path class="st1" d="M75.1,584.4c0.5,0.3,1,0.5,1.5,0.8c0.6,0.3,1.4,0.2,1.7-0.4c0.3-0.6,0.2-1.4-0.4-1.7c-0.5-0.3-1-0.5-1.5-0.8
			c-0.6-0.3-1.4-0.2-1.7,0.4C74.4,583.3,74.5,584.1,75.1,584.4L75.1,584.4z"/>
	</g>
</g>
<g>
	<g>
		<path class="st1" d="M142.1,579.4c2.5,0.7,4.9,1.5,7.4,2.2c1.5,0.5,2.2-1.9,0.7-2.4c-2.5-0.7-4.9-1.5-7.4-2.2
			C141.2,576.6,140.6,579,142.1,579.4L142.1,579.4z"/>
	</g>
</g>
<g>
	<g>
		<path class="st1" d="M174.5,581c-3.2,1.9-5.4,5.1-5.9,8.8c-0.2,1.6,2.2,2.3,2.4,0.7c0.5-3.1,2.1-5.7,4.8-7.3
			C177.2,582.3,175.9,580.1,174.5,581L174.5,581z"/>
	</g>
</g>
<g>
	<g>
		<path class="st1" d="M124.7,568.4c1.6,0,1.6-2.5,0-2.5C123.1,565.9,123.1,568.4,124.7,568.4L124.7,568.4z"/>
	</g>
</g>
<g>
	<g>
		<path class="st1" d="M132.1,592.1c1.6,0,1.6-2.5,0-2.5C130.5,589.6,130.5,592.1,132.1,592.1L132.1,592.1z"/>
	</g>
</g>
<g>
	<g>
		<path class="st1" d="M146.2,564.7c1.6,0,1.6-2.5,0-2.5C144.6,562.2,144.6,564.7,146.2,564.7L146.2,564.7z"/>
	</g>
</g>
<g>
	<g>
		<path class="st1" d="M89.1,581c1.6,0,1.6-2.5,0-2.5C87.5,578.5,87.5,581,89.1,581L89.1,581z"/>
	</g>
</g>
<g>
	<g>
		<path class="st1" d="M128.8,510.4c3.7,1,7.4,2,11.1,3c1.6,0.4,2.2-2,0.7-2.4c-3.7-1-7.4-2-11.1-3
			C127.9,507.6,127.2,510,128.8,510.4L128.8,510.4z"/>
	</g>
</g>
<g>
	<g>
		<path class="st1" d="M150.5,528.9c2.6-2,5.5-3.4,8.6-4.3c1.5-0.4,0.9-2.8-0.7-2.4c-3.3,0.9-6.4,2.5-9.2,4.6
			C148,527.7,149.2,529.9,150.5,528.9L150.5,528.9z"/>
	</g>
</g>
<g>
	<g>
		<path class="st1" d="M187,524.6c1.6,0,1.6-2.5,0-2.5C185.3,522.1,185.3,524.6,187,524.6L187,524.6z"/>
	</g>
</g>
<g>
	<g>
		<path class="st1" d="M62.1,580c0.4,2.2,0.8,4.5,1.2,6.7c0.3,1.6,2.7,0.9,2.4-0.7c-0.4-2.2-0.8-4.5-1.2-6.7
			C64.2,577.8,61.8,578.5,62.1,580L62.1,580z"/>
	</g>
</g>
<g>
	<g>
		<path class="st1" d="M63.9,518.7c1.6,0.1,3.1,0.7,4.3,1.9c1.2,1.1,2.9-0.6,1.8-1.8c-1.7-1.6-3.8-2.5-6.1-2.6
			C62.2,516.1,62.3,518.6,63.9,518.7L63.9,518.7z"/>
	</g>
</g>
<g>
	<g>
		<path class="st1" d="M99.7,514.5c0,1.5,0,3,0,4.4c0,1.6,2.5,1.6,2.5,0c0-1.5,0-3,0-4.4C102.2,512.9,99.7,512.9,99.7,514.5
			L99.7,514.5z"/>
	</g>
</g>
<g>
	<g>
		<path class="st1" d="M73.2,538.5c-4.3,1.7-8.1,4-11.7,7c-1.2,1,0.5,2.8,1.8,1.8c3.2-2.7,6.7-4.8,10.6-6.4
			C75.3,540.3,74.7,537.9,73.2,538.5L73.2,538.5z"/>
	</g>
</g>
<g>
	<g>
		<path class="st1" d="M87.2,523.7c0.5,2.2,1,4.5,1.5,6.7c0.3,1.6,2.8,0.9,2.4-0.7c-0.5-2.2-1-4.5-1.5-6.7
			C89.2,521.5,86.8,522.1,87.2,523.7L87.2,523.7z"/>
	</g>
</g>
<g>
	<g>
		<path class="st1" d="M121,526.8c0.5,0,1,0,1.5,0c1.6,0,1.6-2.5,0-2.5c-0.5,0-1,0-1.5,0C119.3,524.3,119.3,526.8,121,526.8
			L121,526.8z"/>
	</g>
</g>
<g>
	<g>
		<path class="st1" d="M66.3,554.5c0,1,0,2,0,3c0,1.6,2.5,1.6,2.5,0c0-1,0-2,0-3C68.8,552.9,66.3,552.9,66.3,554.5L66.3,554.5z"/>
	</g>
</g>
<g>
	<g>
		<path class="st1" d="M200.6,485.4c-8.9,6.3-20.7,5.5-31.1,5.9c-12.1,0.4-24.3,0.5-36.4,0.3c-10.1-0.1-20.6-0.8-30.5,2.2
			c-9.8,2.9-17.9,12.3-28.7,10.1c-8.5-1.7-15.7-4.8-23.4,1.1c-6.3,4.9-7.6,12.2-6.9,19.7c0.9,9.5,3,18.6-4,26.4
			c-4.8,5.4-11.6,8.8-17.7,12.5c-6.1,3.7-12.4,7.9-16.3,14c-5.1,8-4.7,18.2,0,26.3c0.8,1.4,3,0.1,2.2-1.3
			c-5.4-9.2-4.1-20.3,3.3-27.9c4.9-5.1,11.2-8.4,17.2-12c11.7-7.1,20.2-15.1,18.8-29.8c-1-9.9-3.6-21.2,6.9-27.2
			c9.1-5.2,17.8,2.8,27.1,0.9c8.6-1.8,15.2-8.6,23.8-10.8c10.4-2.6,21.4-1.6,32.1-1.6c12.5,0.1,24.9-0.1,37.4-0.6
			c9.4-0.4,19.5-0.4,27.5-6C203.2,486.7,201.9,484.5,200.6,485.4L200.6,485.4z"/>
	</g>
</g>
<g>
	<g>
		<path class="st1" d="M76.3,571.8c1.6,0,1.6-2.5,0-2.5C74.7,569.3,74.7,571.8,76.3,571.8L76.3,571.8z"/>
	</g>
</g>
<g>
	<g>
		<path class="st1" d="M104.6,559.8c1.6,0,1.6-2.5,0-2.5C103,557.3,103,559.8,104.6,559.8L104.6,559.8z"/>
	</g>
</g>
<g>
	<g>
		<path class="st1" d="M96.4,585.2c0.1,1.4,0,2.7-0.3,4c-0.4,1.6,2,2.2,2.4,0.7c0.4-1.5,0.5-3.1,0.4-4.7
			C98.8,583.6,96.3,583.6,96.4,585.2L96.4,585.2z"/>
	</g>
</g>
<g>
	<g>
		<path class="st1" d="M36.9,579.3c1-0.6,2-1.1,3-1.7c1.4-0.8,0.1-2.9-1.3-2.2c-1,0.6-2,1.1-3,1.7C34.3,577.9,35.5,580,36.9,579.3
			L36.9,579.3z"/>
	</g>
</g>
<g>
	<g>
		<path class="st1" d="M163.8,504.2c0.3,1.7,0.4,3.3,0.3,5c-0.1,1.6,2.4,1.6,2.5,0c0.1-1.9,0-3.8-0.3-5.7
			C165.9,501.9,163.5,502.6,163.8,504.2L163.8,504.2z"/>
	</g>
</g>
<g>
	<g>
		<path class="st1" d="M126,539.8c2.3-0.5,4.7-1,7-1.4c1.6-0.3,0.9-2.7-0.7-2.4c-2.3,0.5-4.7,1-7,1.4
			C123.8,537.7,124.4,540.1,126,539.8L126,539.8z"/>
	</g>
</g>
<g>
	<g>
		<path class="st1" d="M174.6,533.4c1.8-0.1,3.5,0.6,4.6,2.1c0.9,1.3,3.1,0.1,2.2-1.3c-1.5-2.2-4-3.5-6.7-3.3
			C173,531,173,533.5,174.6,533.4L174.6,533.4z"/>
	</g>
</g>
<g>
	<g>
		<path class="st1" d="M182.3,566.3c1.2,0.7,2.6,1.1,4,1.2c1.6,0.1,1.6-2.4,0-2.5c-1,0-1.9-0.3-2.7-0.8
			C182.2,563.3,181,565.4,182.3,566.3L182.3,566.3z"/>
	</g>
</g>
<g>
	<g>
		<path class="st1" d="M182.6,506.1c1.6,0,1.6-2.5,0-2.5C181,503.6,181,506.1,182.6,506.1L182.6,506.1z"/>
	</g>
</g>
<g>
	<g>
		<path class="st1" d="M150.6,542.4c1.6,0,1.6-2.5,0-2.5C149,539.9,149,542.4,150.6,542.4L150.6,542.4z"/>
	</g>
</g>
<g>
	<g>
		<path class="st1" d="M27,589.6c2.4,0.3,4.6,1.2,6.4,2.8c1.2,1.1,3-0.7,1.8-1.8c-2.1-1.9-4.7-3.1-7.5-3.5
			C26.1,587,25.4,589.4,27,589.6L27,589.6z"/>
	</g>
</g>
<g>
	<g>
		<path class="st1" d="M18.3,580.8c1.6,0,1.6-2.5,0-2.5C16.7,578.3,16.7,580.8,18.3,580.8L18.3,580.8z"/>
	</g>
</g>
<g>
	<g>
		<path class="st1" d="M58.3,534.4c1.6,0,1.6-2.5,0-2.5C56.7,531.9,56.7,534.4,58.3,534.4L58.3,534.4z"/>
	</g>
</g>
<g>
	<g>
		<path class="st1" d="M49.8,563.3c0.5,0.5,1,1.2,1.2,1.9c0.2,0.6,0.9,1.1,1.5,0.9c0.6-0.2,1.1-0.9,0.9-1.5c-0.4-1.1-1-2.1-1.9-3
			C50.4,560.4,48.7,562.2,49.8,563.3L49.8,563.3z"/>
	</g>
</g>
<g>
	<g>
		<path class="st1" d="M47.6,584.4c1.6,0,1.6-2.5,0-2.5C46,581.9,46,584.4,47.6,584.4L47.6,584.4z"/>
	</g>
</g>
<g>
	<g>
		<path class="st1" d="M79.3,528.8c1.6,0,1.6-2.5,0-2.5C77.7,526.3,77.7,528.8,79.3,528.8L79.3,528.8z"/>
	</g>
</g>
<g>
	<g>
		<path class="st1" d="M106.3,504.4c1.6,0,1.6-2.5,0-2.5C104.7,501.9,104.7,504.4,106.3,504.4L106.3,504.4z"/>
	</g>
</g>
<g>
	<g>
		<path class="st1" d="M186.6,588.8c1.6,0,1.6-2.5,0-2.5C185,586.3,185,588.8,186.6,588.8L186.6,588.8z"/>
	</g>
</g>
<g>
	<g>
		<path class="st1" d="M153,590.8c1.6,0,1.6-2.5,0-2.5C151.4,588.3,151.4,590.8,153,590.8L153,590.8z"/>
	</g>
</g>
<g>
	<g>
		<path class="st1" d="M131.3,578.4c1.6,0,1.6-2.5,0-2.5C129.7,575.9,129.7,578.4,131.3,578.4L131.3,578.4z"/>
	</g>
</g>
<g>
	<g>
		<path class="st1" d="M116.6,593.4c1.6,0,1.6-2.5,0-2.5C115,590.9,115,593.4,116.6,593.4L116.6,593.4z"/>
	</g>
</g>
<g>
	<g>
		<path class="st1" d="M188.6,546.4c1.6,0,1.6-2.5,0-2.5C187,543.9,187,546.4,188.6,546.4L188.6,546.4z"/>
	</g>
</g>
<g>
	<g>
		<path class="st1" d="M141.3,529.1c1.6,0,1.6-2.5,0-2.5C139.7,526.6,139.7,529.1,141.3,529.1L141.3,529.1z"/>
	</g>
</g>
<g>
	<g>
		<path class="st1" d="M152,501.1c1.6,0,1.6-2.5,0-2.5C150.4,498.6,150.4,501.1,152,501.1L152,501.1z"/>
	</g>
</g>
<g>
	<g>
		<path class="st1" d="M105.3,530.4c1.6,0,1.6-2.5,0-2.5C103.7,527.9,103.7,530.4,105.3,530.4L105.3,530.4z"/>
	</g>
</g>
<g>
	<g>
		<path class="st1" d="M94,540.4c1.6,0,1.6-2.5,0-2.5C92.4,537.9,92.4,540.4,94,540.4L94,540.4z"/>
	</g>
</g>
<g>
	<g>
		<path class="st1" d="M97.3,572.4c1.6,0,1.6-2.5,0-2.5C95.7,569.9,95.7,572.4,97.3,572.4L97.3,572.4z"/>
	</g>
</g>
<g>
	<g>
		<path class="st1" d="M64.6,569.1c1.6,0,1.6-2.5,0-2.5C63,566.6,63,569.1,64.6,569.1L64.6,569.1z"/>
	</g>
</g>
<g>
	<g>
		<path class="st1" d="M162.6,575.1c1.6,0,1.6-2.5,0-2.5C161,572.6,161,575.1,162.6,575.1L162.6,575.1z"/>
	</g>
</g>
<g>
	<g>
		<path class="st1" d="M124,551.8c1.6,0,1.6-2.5,0-2.5C122.4,549.3,122.4,551.8,124,551.8L124,551.8z"/>
	</g>
</g>
<g>
	<g>
		<path class="st1" d="M114,515.1c1.6,0,1.6-2.5,0-2.5C112.4,512.6,112.4,515.1,114,515.1L114,515.1z"/>
	</g>
</g>
<g>
	<g>
		<path class="st1" d="M127.3,503.1c1.6,0,1.6-2.5,0-2.5C125.7,500.6,125.7,503.1,127.3,503.1L127.3,503.1z"/>
	</g>
</g>
<g>
	<g>
		<path class="st1" d="M171.3,521.1c1.6,0,1.6-2.5,0-2.5C169.7,518.6,169.7,521.1,171.3,521.1L171.3,521.1z"/>
	</g>
</g>
<g>
	<g>
		<path class="st1" d="M195.3,513.1c1.6,0,1.6-2.5,0-2.5C193.7,510.6,193.7,513.1,195.3,513.1L195.3,513.1z"/>
	</g>
</g>
<g>
	<g>
		<path class="st1" d="M198,553.1c1.6,0,1.6-2.5,0-2.5C196.4,550.6,196.4,553.1,198,553.1L198,553.1z"/>
	</g>
</g>
<g>
	<g>
		<path class="st1" d="M198.6,501.8c1.6,0,1.6-2.5,0-2.5C197,499.3,197,501.8,198.6,501.8L198.6,501.8z"/>
	</g>
</g>
<g>
	<g>
		<path class="st1" d="M83.3,509.8c1.6,0,1.6-2.5,0-2.5C81.7,507.3,81.7,509.8,83.3,509.8L83.3,509.8z"/>
	</g>
</g>
<g>
	<g>
		<path class="st1" d="M48,549.1c1.6,0,1.6-2.5,0-2.5C46.4,546.6,46.4,549.1,48,549.1L48,549.1z"/>
	</g>
</g>
<g>
	<g>
		<path class="st1" d="M32.6,563.1c1.6,0,1.6-2.5,0-2.5C31,560.6,31,563.1,32.6,563.1L32.6,563.1z"/>
	</g>
</g>
<g>
	<g>
		<path class="st1" d="M46.8,511.5c0.4,1.3,0.9,2.7,1.3,4c0.5,1.5,2.9,0.9,2.4-0.7c-0.4-1.3-0.9-2.7-1.3-4
			C48.7,509.3,46.3,510,46.8,511.5L46.8,511.5z"/>
	</g>
</g>
<g>
	<g>
		<path class="st1" d="M74,594.4c1.6,0,1.6-2.5,0-2.5C72.4,591.9,72.4,594.4,74,594.4L74,594.4z"/>
	</g>
</g>
<g>
	<g>
		<path class="st1" d="M47.4,592.5c0,1.1,0,2.2,0,3.3c0,1.6,2.5,1.6,2.5,0c0-1.1,0-2.2,0-3.3C49.9,590.9,47.4,590.9,47.4,592.5
			L47.4,592.5z"/>
	</g>
</g>
<g>
	<g>
		<path class="st1" d="M106.5,590.5c-0.3,4-0.7,8-1,12c-0.1,1.6,2.4,1.6,2.5,0c0.3-4,0.7-8,1-12
			C109.1,588.9,106.6,588.9,106.5,590.5L106.5,590.5z"/>
	</g>
</g>
<g>
	<g>
		<path class="st1" d="M114,563.1c1.6,0,1.6-2.5,0-2.5C112.4,560.6,112.4,563.1,114,563.1L114,563.1z"/>
	</g>
</g>
<g>
	<g>
		<path class="st1" d="M79.3,555.1c1.6,0,1.6-2.5,0-2.5C77.7,552.6,77.7,555.1,79.3,555.1L79.3,555.1z"/>
	</g>
</g>
<g>
	<g>
		<path class="st1" d="M192,578.4c1.6,0,1.6-2.5,0-2.5C190.4,575.9,190.4,578.4,192,578.4L192,578.4z"/>
	</g>
</g>
<g>
	<g>
		<path class="st1" d="M162,537.8c1.6,0,1.6-2.5,0-2.5C160.4,535.3,160.4,537.8,162,537.8L162,537.8z"/>
	</g>
</g>
<g>
	<g>
		<path class="st1" d="M193.3,533.8c1.6,0,1.6-2.5,0-2.5C191.7,531.3,191.7,533.8,193.3,533.8L193.3,533.8z"/>
	</g>
</g>
<g>
	<g>
		<path class="st1" d="M158,550.8c1.6,0,1.6-2.5,0-2.5C156.4,548.3,156.4,550.8,158,550.8L158,550.8z"/>
	</g>
</g>
<g>
	<g>
		<path class="st1" d="M159,561.8c1.6,0,1.6-2.5,0-2.5C157.4,559.3,157.4,561.8,159,561.8L159,561.8z"/>
	</g>
</g>
<g>
	<g>
		<path class="st1" d="M169,546.8c1.6,0,1.6-2.5,0-2.5C167.4,544.3,167.4,546.8,169,546.8L169,546.8z"/>
	</g>
</g>
<rect x="199.8" y="0" class="st0" width="3" height="598.8"/>
</svg>
