<?xml version="1.0" encoding="utf-8"?>
<!-- Generator: Adobe Illustrator 21.0.0, SVG Export Plug-In . SVG Version: 6.00 Build 0)  -->
<svg version="1.1" id="Слой_1" xmlns="http://www.w3.org/2000/svg" xmlns:xlink="http://www.w3.org/1999/xlink" x="0px" y="0px"
	 viewBox="0 0 144 144.6" style="enable-background:new 0 0 144 144.6;" xml:space="preserve">
<style type="text/css">
	.st0{fill:url(#SVGID_1_);}
	.st1{fill:#7AFFBC;}
	.st2{fill:url(#SVGID_2_);}
	.st3{fill:url(#SVGID_3_);}
	.st4{fill:url(#SVGID_4_);}
	.st5{fill:url(#SVGID_5_);}
</style>
<g>
	<linearGradient id="SVGID_1_" gradientUnits="userSpaceOnUse" x1="72.0248" y1="36.3121" x2="72.0248" y2="36.3121">
		<stop  offset="0" style="stop-color:#0068FF"/>
		<stop  offset="1" style="stop-color:#7AFFBC"/>
	</linearGradient>
	<line class="st0" x1="72" y1="72.6" x2="72" y2="0"/>
	<rect x="70" y="0" class="st1" width="4" height="72.6"/>
</g>
<g>
	<linearGradient id="SVGID_2_" gradientUnits="userSpaceOnUse" x1="0" y1="72.0248" x2="144.0497" y2="72.0248">
		<stop  offset="0" style="stop-color:#0068FF"/>
		<stop  offset="1" style="stop-color:#7AFFBC"/>
	</linearGradient>
	<line class="st2" x1="0" y1="72" x2="144" y2="72"/>
	<rect x="0" y="70" class="st1" width="144" height="4"/>
</g>
<g>
	<linearGradient id="SVGID_3_" gradientUnits="userSpaceOnUse" x1="20.2409" y1="72.0248" x2="123.8088" y2="72.0248">
		<stop  offset="0" style="stop-color:#0068FF"/>
		<stop  offset="1" style="stop-color:#7AFFBC"/>
	</linearGradient>
	<line class="st3" x1="20.2" y1="20.2" x2="123.8" y2="123.8"/>
	<rect x="70" y="-1.2" transform="matrix(0.7071 -0.7071 0.7071 0.7071 -29.8338 72.0248)" class="st1" width="4" height="146.5"/>
</g>
<g>
	<linearGradient id="SVGID_4_" gradientUnits="userSpaceOnUse" x1="72.0248" y1="108.337" x2="72.0248" y2="108.337">
		<stop  offset="0" style="stop-color:#0068FF"/>
		<stop  offset="1" style="stop-color:#7AFFBC"/>
	</linearGradient>
	<line class="st4" x1="72" y1="144.6" x2="72" y2="72"/>
	<rect x="70" y="72" class="st1" width="4" height="72.6"/>
</g>
<g>
	<linearGradient id="SVGID_5_" gradientUnits="userSpaceOnUse" x1="21.1116" y1="72.0248" x2="122.9381" y2="72.0248">
		<stop  offset="0" style="stop-color:#0068FF"/>
		<stop  offset="1" style="stop-color:#7AFFBC"/>
	</linearGradient>
	<line class="st5" x1="21.1" y1="122.9" x2="122.9" y2="21.1"/>
	<rect x="0" y="70" transform="matrix(0.707 -0.7072 0.7072 0.707 -29.8337 72.0339)" class="st1" width="144" height="4"/>
</g>
</svg>
